<?xml version="1.0" encoding="UTF-8"?>
<!DOCTYPE svg PUBLIC "-//W3C//DTD SVG 1.1//EN" "http://www.w3.org/Graphics/SVG/1.1/DTD/svg11.dtd">
<!-- Creator: CorelDRAW 2021 (64 Bit) -->
<svg xmlns="http://www.w3.org/2000/svg" xml:space="preserve" width="150mm" height="150mm" version="1.1" style="shape-rendering:geometricPrecision; text-rendering:geometricPrecision; image-rendering:optimizeQuality; fill-rule:evenodd; clip-rule:evenodd"
viewBox="0 0 15000 15000"
 xmlns:xlink="http://www.w3.org/1999/xlink"
 xmlns:xodm="http://www.corel.com/coreldraw/odm/2003">
 <defs>
  <style type="text/css">
   <![CDATA[
    .fil0 {fill:#FDD9C7;fill-rule:nonzero}
    .fil2 {fill:#F58E70;fill-rule:nonzero}
    .fil1 {fill:#927C7C;fill-rule:nonzero}
    .fil3 {fill:#38BEB5;fill-rule:nonzero}
   ]]>
  </style>
 </defs>
 <g id="Camada_x0020_1">
  <metadata id="CorelCorpID_0Corel-Layer"/>
  <path class="fil0" d="M10886.63 4749.35c-0.45,-42.63 -20.2,-82.43 -55.75,-111.95 -35.9,-29.57 -83.17,-45.89 -134.36,-45.89l-1182.12 3.39c-21.34,0.12 -43.25,3.99 -69.56,12.93 -1.47,0.25 -8.15,2.05 -9.44,2.46 -66.79,25.98 -109.74,82.08 -109.4,142.93 0.08,64.9 47.47,122.17 120.44,145.88 22.93,7.54 46.05,11.36 69.25,11.36 0,0 413.58,-1.28 413.76,-1.28 27.46,0 52.28,13.65 62.82,35.06 10.77,21.19 4.86,45.64 -14.59,62l-2456.14 2046.2c-13.38,11.14 -30.78,16.57 -48.21,16.57 -17.29,0 -34.84,-5.43 -48.08,-16.48l-699.28 -579.49c-39.65,-32.54 -94.4,-51.43 -150.01,-51.43 -56.44,0.27 -109.55,18.89 -150.53,53.36l-2150.97 1744.57 615.02 0 1641.34 -1332.72c13.23,-10.4 30.21,-15.6 47.05,-15.6 17.42,0 34.83,5.57 47.91,16.6l699.89 579.56c39.23,32.61 93.94,51.37 149.55,51.37 56.79,-0.26 109.89,-18.76 149.66,-52.44l2750.27 -2292.16c1.77,-1.44 3.9,-3.04 5.98,-4.49l17.14 -11.14c12.12,-8.12 26.95,-12.09 41.92,-12.09 10.31,0 20.36,1.82 29.76,5.54 23.39,9.58 38.47,29.45 38.59,51.12l0.65 486.39c0.1,86.89 85.21,157.62 189.42,157.62 104.4,-0.17 189.16,-70.98 188.97,-158l-0.95 -939.75z"/>
  <path class="fil1" d="M6369.69 4859.89l-159.1 652.24 -781.24 719.06c-93.18,85.7 -85.37,218.27 17.74,296.11 102.92,77.71 261.87,71.17 355.13,-14.65l827.18 -761.68c30.64,-28 51.26,-61.83 60.12,-99.07l113.81 -466.16c-50.39,-48.79 -105.95,-101.44 -158.08,-148.51 -105.27,-47.73 -202.39,-115.28 -275.56,-177.34z"/>
  <path class="fil1" d="M7674.69 3529.97c-10.01,72.27 -60.69,175.9 -60.69,175.9l473.74 124.91c61.98,16.46 129.37,7.38 182.18,-24.44l604.82 -363.37c92.31,-55.35 113.12,-162.6 46.75,-239.51 -66.5,-76.82 -195.08,-94.27 -287.28,-38.83l-521.11 313.03 -461.19 -121.5c0,0 32.82,101.54 22.78,173.81z"/>
  <path class="fil1" d="M7469.69 2998.66c261.6,-34.94 327.38,-329.36 341.48,-568.7 14.06,-239.47 -195.41,-409.91 -399.24,-418.37 -279.61,-11.29 -473.29,175.14 -487.54,414.5 25.58,391.23 353.08,598 545.3,572.57z"/>
  <path class="fil1" d="M7332.65 3174.58c0,0 -225.9,-108.61 -266.84,-141.91l-0.87 0 0 -0.11c-54.17,-4.72 -203.41,-2.67 -205.27,-6.29 -148.79,8.59 -419.41,33.29 -759.29,65.61 -19.49,1.82 -727.88,447.55 -730.23,449.22 -86.13,64.28 -93.21,174.46 -16.11,246.25 77.07,71.66 209.18,77.81 295.31,13.43l0.98 -0.85c12.32,-8.82 546.44,-373.68 579.84,-382.17 21.23,-5.43 476.62,12.47 476.62,12.47l-157.24 39.46c-72.86,262.69 -262.17,776.33 -291.52,1014.29 -3.03,26.52 76.95,40.34 74.64,65.39 -5.11,51.57 92.92,230.87 407.37,365.72 79.11,71.56 506.97,430.45 511.6,438.95 1.6,13.41 -137.65,790.14 -137.65,790.14 -22.63,129.99 63.2,241.72 208.5,257.11 145.35,15.22 266.83,-66.25 289.2,-196.11 0,-0.86 135.59,-821.13 145.04,-851.14 40.79,-130.87 -23.2,-177.12 -47.91,-212.32 -31.36,-44.82 -500.28,-496.24 -519.01,-513.88 89.39,-620.78 386.89,-1037.81 380.38,-1128.72 -14.22,-195.78 -81.73,-266.57 -81.73,-266.57l-155.81 -57.97z"/>
  <polygon class="fil1" points="6607.92,7086.33 5248.77,8219.55 5475.26,8219.55 6721.61,7180.5 "/>
  <polygon class="fil1" points="6899.17,7327.7 5829.63,8219.54 6056.29,8219.54 7012.86,7421.86 "/>
  <path class="fil1" d="M7197.34 7574.56l-6.83 -5.63 -780.03 650.61 226.51 0 688.7 -574.35c-47.76,-16.03 -91.76,-40.04 -128.35,-70.63z"/>
  <polygon class="fil1" points="10327.12,5438.05 6991.22,8219.55 7217.95,8219.55 10327.42,5626.61 "/>
  <polygon class="fil1" points="7798.83,8219.54 10378.51,6068.39 10378.51,5879.53 7572.19,8219.54 "/>
  <polygon class="fil1" points="8379.52,8219.54 10378.49,6552.72 10378.49,6363.71 8152.95,8219.54 "/>
  <polygon class="fil1" points="8960.27,8219.54 10378.52,7037.05 10378.52,6848.06 8733.8,8219.54 "/>
  <polygon class="fil1" points="9541.12,8219.54 10378.51,7521.4 10378.51,7332.29 9314.58,8219.54 "/>
  <polygon class="fil1" points="10122.11,8219.54 10378.52,8005.74 10378.52,7816.75 9895.33,8219.54 "/>
  <path class="fil2" d="M1569.95 9624.28c80.93,0 153.38,-4.19 217.48,-12.65 64.03,-8.41 118.42,-24.29 163.11,-47.4 44.66,-23.23 79.23,-54.87 103.69,-94.9 24.41,-40.08 36.65,-92.46 36.65,-157.12 0,-95.6 -37.52,-167.99 -112.51,-217.22 -75.05,-49.17 -194.35,-73.78 -357.85,-73.78l-445.08 0 0 603.07 394.51 0zm-566.46 792.87l0 -1518.22 665.06 0c118.01,0 215.39,11.24 292.12,33.73 76.69,22.45 137.38,53.4 182.07,92.77 44.66,39.38 75.85,84.69 93.56,135.96 17.7,51.35 26.57,105.16 26.57,161.3 0,84.37 -20.66,153.96 -61.94,208.82 -41.36,54.8 -94.84,98.08 -160.62,129.65 -65.73,31.67 -140.33,53.83 -223.81,66.46 -83.44,12.65 -167.33,18.99 -251.63,18.99l-389.43 0 0 670.54 -171.95 0z"/>
  <path class="fil2" d="M3261.74 9605.3c64.06,0 123.47,-5.58 178.28,-16.86 54.78,-11.24 102.43,-29.15 142.92,-53.78 40.44,-24.61 72.44,-55.88 96.09,-93.86 23.58,-37.98 35.37,-83.59 35.37,-137.05 0,-56.19 -12.24,-102.58 -36.66,-139.15 -24.44,-36.56 -57.31,-65.38 -98.6,-86.45 -41.35,-21.11 -88.55,-35.85 -141.61,-44.31 -53.12,-8.41 -108.38,-12.64 -165.67,-12.64l-546.25 0 0 584.1 536.13 0zm-536.13 122.32l0 689.55 -171.95 -2.12 0 -1516.15 713.16 0c200.61,0 354.06,31.28 460.25,93.82 106.22,62.6 159.32,164.19 159.32,304.69 0,95.66 -23.2,171.55 -69.57,227.78 -46.4,56.21 -121.79,104.05 -226.34,143.37 53.98,15.5 96.14,37.97 126.46,67.47 30.37,29.53 53.15,63.26 68.27,101.21 15.21,37.98 24.88,78.04 29.08,120.23 4.21,42.15 7.2,83 8.87,122.26 1.67,57.69 4.62,105.41 8.84,143.41 4.2,37.96 9.28,68.88 15.19,92.81 5.88,23.94 13.05,42.52 21.49,55.86 8.43,13.37 18.55,23.57 30.34,30.56l0 12.68 -189.66 2.12c-18.57,-25.36 -31.62,-60.46 -39.19,-105.41 -7.59,-44.99 -13.5,-92.1 -17.71,-141.32 -4.21,-49.23 -7.59,-97.02 -10.12,-143.42 -2.54,-46.36 -7.17,-84.34 -13.92,-113.82 -10.11,-40.78 -26.53,-73.46 -49.28,-98.07 -22.78,-24.59 -50.22,-43.23 -82.18,-55.9 -32.06,-12.62 -67.89,-21.08 -107.51,-25.32 -39.61,-4.21 -80.52,-6.29 -122.63,-6.29l-541.21 0z"/>
  <path class="fil2" d="M5021.82 10334.9c118.01,0 219.6,-18.6 304.73,-55.85 85.11,-37.24 155.1,-86.79 209.91,-148.68 54.77,-61.84 95.23,-133.56 121.38,-215.09 26.11,-81.51 39.19,-166.55 39.19,-255.14 0,-105.44 -15.61,-199.99 -46.78,-283.6 -31.19,-83.62 -76.3,-155.02 -135.28,-214.03 -59.03,-59.08 -130.68,-104.02 -214.95,-134.96 -84.34,-30.91 -178.73,-46.39 -283.25,-46.39 -116.33,0 -217.06,18.99 -302.15,56.92 -85.18,37.91 -155.17,88.24 -209.94,150.8 -54.81,62.55 -95.27,134.59 -121.38,216.06 -26.16,81.63 -39.2,166.63 -39.2,255.2 0,89.96 13.04,175.74 39.2,257.26 26.11,81.58 66.57,153.2 121.38,215.06 54.77,61.87 124.76,111.08 209.94,147.61 85.09,36.59 187.48,54.83 307.2,54.83zm-849.7 -674.76c0,-111.04 18.07,-215.1 54.39,-312.09 36.23,-97 89.77,-181.67 160.58,-254.12 70.8,-72.35 158.46,-129.69 263,-171.79 104.51,-42.2 225.06,-63.31 361.61,-63.31 141.66,0 265.96,20.79 373.01,62.17 107.06,41.56 196.41,98.46 268.09,170.81 71.61,72.45 125.58,157.5 161.83,255.17 36.23,97.77 54.39,202.12 54.39,313.16 0,109.63 -18.16,212.64 -54.39,308.94 -36.25,96.3 -89.77,180.61 -160.58,253.05 -70.82,72.39 -159.33,129.64 -265.55,171.83 -106.17,42.2 -229.26,63.25 -369.18,63.25 -139.96,0 -263.01,-21.05 -369.23,-63.25 -106.22,-42.19 -194.73,-99.44 -265.55,-171.83 -70.81,-72.44 -123.91,-156.75 -159.29,-253.05 -35.44,-96.3 -53.13,-199.31 -53.13,-308.94z"/>
  <path class="fil2" d="M6233.17 9936.34c0,47.82 2.08,94.95 6.33,141.32 4.17,46.38 16.83,88.19 37.91,125.43 21.07,37.31 53.94,67.18 98.63,89.62 44.66,22.57 106.64,33.77 185.87,33.77 118.01,0 201.06,-28.08 249.09,-84.33 48.07,-56.23 72.1,-137.76 72.1,-244.61l0 -1098.61 171.95 0 0 1102.84c0,147.62 -41.32,260.41 -123.88,338.47 -82.68,77.96 -212.44,116.97 -389.47,116.97 -102.88,0 -185.48,-14.4 -247.84,-43.18 -62.4,-28.84 -110.88,-67.49 -145.42,-116.04 -34.57,-48.51 -57.77,-103.98 -69.56,-166.57 -11.78,-62.49 -17.7,-127.56 -17.7,-195.08l171.99 0z"/>
  <polygon class="fil2" points="7474.84,10417.15 7474.84,8898.93 8686.15,8898.93 8686.15,9021.21 7646.75,9021.21 7646.75,9569.48 8585.01,9569.48 8585.01,9691.76 7646.75,9691.76 7646.75,10294.89 8711.47,10294.89 8711.47,10417.15 "/>
  <path class="fil2" d="M10312.24 9339.62c-35.45,-129.36 -101.18,-221.41 -197.28,-276.25 -96.05,-54.85 -221.65,-82.25 -376.8,-82.25 -109.55,0 -203.98,18.25 -283.21,54.78 -79.23,36.48 -144.58,85.64 -196.02,147.37 -51.41,61.75 -89.32,133 -113.81,213.68 -24.44,80.78 -36.61,165.95 -36.61,255.81 0,84.23 10.5,167.03 31.62,248.45 21.03,81.44 56.02,154.08 104.93,217.94 48.86,63.81 114.63,115.44 197.26,154.7 82.6,39.28 186.29,58.96 311.04,58.96 77.55,0 148.34,-10.52 212.43,-31.65 64.07,-21.08 120.1,-50.2 168.2,-87.48 47.99,-37.23 88.44,-81.21 121.34,-131.77 32.87,-50.63 57.74,-106.15 74.65,-166.62l179.5 0c-20.22,71.67 -48.91,139.52 -85.95,203.49 -37.07,64 -86,120.63 -146.74,170.01 -60.65,49.36 -134.41,89.09 -221.23,119.11 -86.89,30.05 -188.44,45.75 -304.74,47.2l-83.43 86.42c15.19,-2.78 30.35,-5.62 45.52,-8.41 15.17,-2.84 30.33,-4.2 45.53,-4.2 55.57,0 100.68,11.63 135.22,34.79 34.57,23.18 54.44,48.14 59.47,74.87 8.46,37.93 6.3,70.62 -6.37,98.06 -12.58,27.37 -32.41,49.52 -59.4,66.39 -26.95,16.92 -59.02,29.57 -96.1,37.95 -37.07,8.49 -75.85,12.66 -116.3,12.66 -38.78,0 -77.56,-3.87 -116.34,-11.59 -38.78,-7.73 -76.72,-17.24 -113.79,-28.44l37.94 -63.26c26.92,6.96 53.45,14.03 79.65,21.04 26.12,7.03 53.52,10.58 82.22,10.58 18.54,0 37.49,-1.8 56.9,-5.3 19.33,-3.53 37.49,-9.13 54.36,-16.83 16.83,-7.74 30.37,-17.98 40.45,-30.56 10.08,-12.74 15.2,-28.2 15.2,-46.43 0,-28.16 -13.12,-48.86 -39.24,-62.19 -26.11,-13.4 -55.19,-20.04 -87.22,-20.04 -18.54,0 -37.08,1.74 -55.69,5.26 -18.53,3.55 -37.07,7.42 -55.62,11.58l-37.9 -27.4 118.84 -134.95c-128.16,-7.03 -237.71,-33.05 -328.74,-78.03 -91.01,-44.98 -165.23,-103.65 -222.55,-176.09 -57.32,-72.38 -99.47,-154.95 -126.47,-247.78 -26.99,-92.76 -40.44,-191.13 -40.44,-295.15 0,-144.81 21.49,-267.88 64.48,-369.04 43.03,-101.24 102.43,-183.79 178.28,-247.78 75.93,-63.94 165.24,-110.37 268.08,-139.16 102.82,-28.78 214.95,-43.21 336.33,-43.21 92.72,0 179.12,10.19 259.21,30.51 80.06,20.43 150.91,51.03 212.43,91.75 61.56,40.81 112.14,91.01 151.75,150.76 39.58,59.8 67.06,129.01 82.18,207.74l-177.02 0z"/>
  <path class="fil2" d="M11129.03 9818.28l713.17 0 -356.64 -797.07 -356.53 797.07zm-25.31 -1062.77c3.37,-25.32 9.24,-48.14 17.77,-68.55 8.34,-20.33 19.33,-39.02 32.83,-55.85 25.28,-29.54 57.73,-51.63 97.38,-66.44 39.58,-14.74 81.32,-17.9 125.18,-9.49 23.54,4.22 48.83,11.3 75.85,21.11 26.92,9.84 54.4,20.04 82.23,30.59 27.74,10.53 54.74,19.69 80.89,27.4 26.08,7.74 50.15,11.61 72.03,11.61 37.1,0 63.27,-11.26 78.46,-33.77 15.16,-22.47 26.08,-46.39 32.83,-71.71l96.1 0c-1.71,14.09 -4.62,27.82 -8.87,41.14 -4.21,13.41 -8,26.33 -11.38,38.99 -18.53,33.73 -42.14,63.26 -70.77,88.58 -28.69,25.31 -67.47,37.94 -116.37,37.94 -35.41,0 -68.7,-4.89 -99.85,-14.75 -31.24,-9.79 -61.95,-20.74 -92.35,-32.7 -30.29,-11.92 -60.27,-22.78 -89.72,-32.66 -29.53,-9.81 -58.61,-14.72 -87.27,-14.72 -38.78,0 -66.61,10.48 -83.44,31.57 -16.9,21.11 -30.4,45.01 -40.52,71.71l-91.01 0zm-424.84 1661.64l715.67 -1518.22 194.73 0 697.95 1518.22 -176.99 0 -209.93 -476.57 -829.42 0 -214.98 476.57 -177.03 0z"/>
  <path class="fil2" d="M13311.4 10334.9c118.01,0 219.64,-18.6 304.79,-55.85 85.11,-37.24 155.08,-86.79 209.9,-148.68 54.73,-61.84 95.18,-133.56 121.38,-215.09 26.12,-81.51 39.2,-166.55 39.2,-255.14 0,-105.44 -15.63,-199.99 -46.78,-283.6 -31.2,-83.62 -76.31,-155.02 -135.34,-214.03 -59.01,-59.08 -130.66,-104.02 -214.9,-134.96 -84.37,-30.91 -178.77,-46.39 -283.24,-46.39 -116.34,0 -217.11,18.99 -302.21,56.92 -85.18,37.91 -155.11,88.24 -209.89,150.8 -54.82,62.55 -95.23,134.59 -121.39,216.06 -26.15,81.63 -39.2,166.63 -39.2,255.2 0,89.96 13.05,175.74 39.2,257.26 26.16,81.58 66.57,153.2 121.39,215.06 54.78,61.87 124.71,111.08 209.89,147.61 85.1,36.59 187.5,54.83 307.2,54.83zm-849.63 -674.76c0,-111.04 18.09,-215.1 54.33,-312.09 36.28,-97 89.8,-181.67 160.57,-254.12 70.82,-72.35 158.5,-129.69 263.06,-171.79 104.46,-42.2 225.05,-63.31 361.6,-63.31 141.62,0 265.92,20.79 372.97,62.17 107.05,41.56 196.44,98.46 268.08,170.81 71.61,72.45 125.6,157.5 161.88,255.17 36.2,97.77 54.39,202.12 54.39,313.16 0,109.63 -18.19,212.64 -54.39,308.94 -36.28,96.3 -89.8,180.61 -160.59,253.05 -70.84,72.39 -159.28,129.64 -265.5,171.83 -106.26,42.2 -229.34,63.25 -369.23,63.25 -139.95,0 -263.04,-21.05 -369.21,-63.25 -106.27,-42.19 -194.7,-99.44 -265.59,-171.83 -70.77,-72.44 -123.84,-156.75 -159.29,-253.05 -35.41,-96.3 -53.08,-199.31 -53.08,-308.94z"/>
  <path class="fil3" d="M1652.66 11351.48c-33.9,-23.66 -81.36,-35.51 -142.35,-35.51l-241.06 0 0 314.3 241.06 0c60.99,0 108.45,-12.82 142.35,-38.35 33.88,-25.56 50.82,-66.16 50.82,-121.68 0,-55.52 -16.94,-95.13 -50.82,-118.76zm204.16 384.53c-74.94,52.13 -181.95,78.18 -321.04,78.18l-266.53 0 0 383.86 -265.78 0 0 -1067.5 549.67 0c126.73,0 227.72,27.58 303.11,82.57 75.33,55.08 113.01,140.28 113.01,255.62 0,126.08 -37.49,215.14 -112.44,267.27z"/>
  <path class="fil3" d="M2451.26 11315.97l0 286.77 287.87 0c57.2,0 100.07,-5.76 128.66,-17.39 50.61,-20.26 75.89,-60.36 75.89,-120.15 0,-64.71 -24.46,-108.21 -73.39,-130.4 -27.49,-12.54 -68.76,-18.83 -123.74,-18.83l-295.29 0zm552.84 -157.84c47.2,16.87 87.12,41.78 119.87,74.57 27.1,27.02 48.56,56.97 64.37,89.81 15.8,32.89 23.72,70.27 23.72,112.19 0,50.76 -15.34,100.57 -46.01,149.61 -30.74,49 -81.39,83.58 -152.02,103.89 59.07,19.79 100.88,47.91 125.52,84.42 24.6,36.43 36.88,92.03 36.88,166.87l0 71.71c0,48.74 2.35,81.81 7.09,99.24 7.05,27.47 23.5,47.76 49.4,60.79l0 26.82 -295.31 0c-8.11,-23.66 -13.87,-42.75 -17.35,-57.24 -6.99,-29.93 -10.74,-60.61 -11.31,-91.93l-1.7 -99.23c-1.13,-68.13 -15.24,-113.45 -42.34,-136.15 -27.15,-22.72 -77.94,-34.04 -152.4,-34.04l-261.25 0 0 418.59 -261.42 0 0 -1067.48 612.29 0c87.53,1.5 154.85,10.66 201.97,27.56z"/>
  <path class="fil3" d="M4286.81 11940.94c62.28,-65.15 93.37,-157.83 93.37,-278.08 0,-119.74 -31.09,-212.32 -93.37,-277.7 -62.25,-65.46 -146.32,-98.15 -252.27,-98.15 -105.99,0 -190.5,32.57 -253.61,97.78 -63.12,65.13 -94.65,157.91 -94.65,278.07 0,120.25 31.53,212.93 94.65,278.08 63.11,65.18 147.62,97.74 253.61,97.74 105.95,0 190.02,-32.56 252.27,-97.74zm167.22 162.23c-96.7,83.05 -236.55,124.55 -419.49,124.55 -182.95,0 -322.83,-41.5 -419.5,-124.55 -129.72,-101.88 -194.53,-248.65 -194.53,-440.31 0,-195.52 64.81,-342.26 194.53,-440.35 96.67,-82.94 236.55,-124.55 419.5,-124.55 182.94,0 322.79,41.61 419.49,124.55 129.07,98.09 193.66,244.83 193.66,440.35 0,191.66 -64.59,338.43 -193.66,440.31z"/>
  <polygon class="fil3" points="4851.78,11132.06 5764.61,11132.06 5764.61,11319.6 5117.55,11319.6 5117.55,11565.13 5684.7,11565.13 5684.7,11750.47 5117.55,11750.47 5117.55,12198.07 4851.78,12198.07 "/>
  <polygon class="fil3" points="6182.31,12198.07 5916.57,12198.07 5916.57,11130.56 6182.31,11130.56 "/>
  <path class="fil3" d="M6625.26 11868.5c8.27,48.84 24.53,85.27 48.75,109.4 44.35,43.9 120.33,65.91 227.9,65.91 64.45,0 116.76,-5.81 156.94,-17.42 76.27,-22.14 114.41,-63.44 114.41,-123.85 0,-35.21 -18.69,-62.48 -56.03,-81.8 -37.37,-18.84 -96.59,-35.44 -177.71,-49.97l-138.63 -25.38c-136.2,-25.02 -229.76,-52.35 -280.71,-81.81 -86.28,-49.22 -129.42,-126.26 -129.42,-231 0,-95.57 42.19,-174.99 126.58,-238.23 84.41,-63.3 208.37,-94.89 371.91,-94.89 136.54,0 253.04,29.82 349.48,89.43 96.43,59.67 147,146.19 151.66,259.64l-257.09 0c-4.73,-64.23 -39.15,-109.81 -103.26,-136.88 -42.73,-17.92 -95.86,-26.85 -159.36,-26.85 -70.66,0 -127.03,11.63 -169.19,34.81 -42.15,23.16 -63.19,55.48 -63.19,97 0,38.21 20.77,66.69 62.32,85.45 26.68,12.63 83.36,27.33 170.06,44.2l224.68 44.15c98.44,19.36 172.25,45.12 221.38,77.48 76.31,50.28 114.48,122.88 114.48,218.06 0,97.5 -45.22,178.47 -135.64,242.94 -90.4,64.42 -218.15,96.65 -383.16,96.65 -168.58,0 -301.11,-31.75 -397.7,-95.24 -96.56,-63.44 -144.8,-150.75 -144.8,-261.8l255.34 0z"/>
  <path class="fil3" d="M7811.63 11868.5c8.26,48.84 24.52,85.27 48.74,109.4 44.36,43.9 120.36,65.91 227.98,65.91 64.33,0 116.72,-5.81 156.91,-17.42 76.27,-22.14 114.4,-63.44 114.4,-123.85 0,-35.21 -18.68,-62.48 -56.02,-81.8 -37.39,-18.84 -96.64,-35.44 -177.72,-49.97l-138.63 -25.38c-136.24,-25.02 -229.8,-52.35 -280.74,-81.81 -86.29,-49.22 -129.42,-126.26 -129.42,-231 0,-95.57 42.19,-174.99 126.57,-238.23 84.42,-63.3 208.38,-94.89 371.92,-94.89 136.58,0 253.07,29.82 349.51,89.43 96.39,59.67 147.01,146.19 151.63,259.64l-257.06 0c-4.77,-64.23 -39.16,-109.81 -103.25,-136.88 -42.77,-17.92 -95.88,-26.85 -159.45,-26.85 -70.58,0 -126.99,11.63 -169.14,34.81 -42.16,23.16 -63.2,55.48 -63.2,97 0,38.21 20.82,66.69 62.33,85.45 26.68,12.63 83.39,27.33 170.09,44.2l224.65 44.15c98.48,19.36 172.25,45.12 221.38,77.48 76.34,50.28 114.51,122.88 114.51,218.06 0,97.5 -45.22,178.47 -135.67,242.94 -90.45,64.42 -218.16,96.65 -383.14,96.65 -168.57,0 -301.14,-31.75 -397.72,-95.24 -96.56,-63.44 -144.78,-150.75 -144.78,-261.8l255.32 0z"/>
  <polygon class="fil3" points="9049.29,12198.07 8783.48,12198.07 8783.48,11130.56 9049.29,11130.56 "/>
  <path class="fil3" d="M10117.96 11940.94c62.21,-65.15 93.33,-157.83 93.33,-278.08 0,-119.74 -31.12,-212.32 -93.33,-277.7 -62.28,-65.46 -146.33,-98.15 -252.36,-98.15 -105.95,0 -190.44,32.57 -253.56,97.78 -63.15,65.13 -94.66,157.91 -94.66,278.07 0,120.25 31.51,212.93 94.66,278.08 63.12,65.18 147.61,97.74 253.56,97.74 106.03,0 190.08,-32.56 252.36,-97.74zm167.17 162.23c-96.74,83.05 -236.54,124.55 -419.53,124.55 -182.9,0 -322.74,-41.5 -419.48,-124.55 -129.69,-101.88 -194.51,-248.65 -194.51,-440.31 0,-195.52 64.82,-342.26 194.51,-440.35 96.74,-82.94 236.58,-124.55 419.48,-124.55 182.99,0 322.79,41.61 419.53,124.55 129.08,98.09 193.64,244.83 193.64,440.35 0,191.66 -64.56,338.43 -193.64,440.31z"/>
  <polygon class="fil3" points="10678.55,11130.56 10958.98,11130.56 11467.19,11874.9 11467.19,11130.56 11716.39,11130.56 11716.39,12198.07 11448.98,12198.07 10927.79,11440.63 10927.79,12198.07 10678.55,12198.07 "/>
  <path class="fil3" d="M12315.85 11794.65l327.83 0 -161.65 -419.98 -166.18 419.98zm17.62 -664.09l302.69 0 452.85 1067.51 -289.99 0 -84.46 -219.46 -471.46 0 -86.77 219.46 -279.83 0 456.97 -1067.51z"/>
  <polygon class="fil3" points="13251.89,11130.56 13519.44,11130.56 13519.44,12006.12 14158.64,12006.12 14158.64,12198.07 13251.89,12198.07 "/>
 </g>
</svg>
